<?xml version="1.0" standalone="no"?>
<!DOCTYPE svg PUBLIC "-//W3C//DTD SVG 1.1//EN" "http://www.w3.org/Graphics/SVG/1.1/DTD/svg11.dtd" >
<svg xmlns="http://www.w3.org/2000/svg">
<metadata>
This is a custom SVG webfont generated by Font Squirrel.
Copyright   : Copyrighted c 1981 1997 by and the property of LinotypeHell AG andor its subsidiaries All Rights Reserved All Cyrillic characters designed by DoubleAlex Univers is a registered Trademark of Haassche Schriftgiesserei AG
</metadata>
<defs>
<font id="UniversCyrLight" horiz-adv-x="1138" >
<font-face units-per-em="2048" ascent="1479" descent="-569" />
<missing-glyph horiz-adv-x="569" />
<glyph unicode=" "  horiz-adv-x="569" />
<glyph unicode="&#x09;" horiz-adv-x="569" />
<glyph unicode="&#xa0;" horiz-adv-x="569" />
<glyph unicode="!" horiz-adv-x="796" d="M311 0v170h162v-170h-162zM311 1479h166l-26 -1129h-115z" />
<glyph unicode="&#x22;" horiz-adv-x="569" d="M53 1419h137l-18 -422h-102zM365 1419h135l-17 -422h-102z" />
<glyph unicode="#" d="M27 428v109h247l62 331h-227v107h245l84 444h121l-82 -444h275l82 444h120l-82 -444h228v-107h-248l-61 -331h227v-109h-246l-80 -428h-121l78 428h-274l-80 -428h-121l80 428h-227zM395 537h275l61 331h-274z" />
<glyph unicode="$" d="M84 360h139q0 -127 66 -184q80 -72 227 -80v561q-92 29 -150.5 54.5t-124 70.5t-98 112t-32.5 157q0 162 121.5 261t283.5 105v129h90v-129q176 -4 293 -83t129 -244h-137q-10 201 -285 213v-535q213 -68 289 -115q160 -100 160 -284q0 -137 -94 -242 q-115 -127 -355 -141v-127h-90v127q-231 10 -344 123q-55 55 -71.5 109t-16.5 142zM248 1059q0 -109 72.5 -167t195.5 -99v510q-115 -6 -191.5 -75t-76.5 -169zM606 96q129 8 219 76t90 195q0 37 -11 67.5t-24.5 53t-44.5 43.5l-49 33q-16 11 -61 27.5t-57 20.5l-62 21v-537 z" />
<glyph unicode="%" horiz-adv-x="2048" d="M152 1108q0 174 90 283.5t235 109.5q150 0 236 -103.5t86 -283.5t-87 -284.5t-237 -104.5q-145 0 -234 105.5t-89 277.5zM270 1108q0 -135 57.5 -214t155.5 -79q92 0 146.5 81t54.5 218t-54.5 215t-148.5 78q-98 0 -154.5 -80t-56.5 -219zM502 -66l889 1616h116 l-889 -1616h-116zM1231 371q0 174 90 283.5t235 109.5q150 0 236 -103.5t86 -283.5t-87 -284.5t-237 -104.5q-145 0 -234 105.5t-89 277.5zM1350 371q0 -133 57 -212t156 -79q92 0 146 80t54 217t-54 215t-148 78q-98 0 -154.5 -80t-56.5 -219z" />
<glyph unicode="&#x26;" horiz-adv-x="1478" d="M111 406q0 66 24.5 127t53 102t91 93t93.5 73l106 71q-195 219 -194 363q0 125 89 198.5t238.5 73.5t237.5 -72.5t88 -193.5q0 -80 -47 -157.5t-94 -119.5t-129 -106l434 -463q66 104 90 275q14 115 14 258v16h131q-4 -145 -20 -258q-29 -219 -127 -381l280 -305h-190 l-176 197q-94 -113 -206 -163t-267 -50q-240 0 -385 133q-135 119 -135 289zM248 414q0 -131 112.5 -224.5t272.5 -93.5q238 0 393 187l-463 497l-62 -43q-56 -39 -74.5 -53t-64 -53t-62.5 -66.5t-34.5 -68.5t-17.5 -82zM422 1241q0 -121 166 -297q213 170 213 293 q0 70 -52.5 115t-136.5 45t-137 -43t-53 -113z" />
<glyph unicode="'" horiz-adv-x="569" d="M209 1419h135l-16 -422h-103z" />
<glyph unicode="(" horiz-adv-x="569" d="M141 641q0 139 38 306t69 253t110 287l19 49h88l-55 -180q-133 -434 -134 -719q0 -117 20.5 -245t43 -212t70.5 -239l55 -185h-90q-145 379 -187 537q-47 188 -47 348z" />
<glyph unicode=")" horiz-adv-x="569" d="M104 -244l56 181q133 438 133 718q0 117 -20.5 245t-43 212t-69.5 240l-56 184h91q145 -379 186 -537q47 -188 47 -348q0 -145 -42 -322t-76 -269l-117 -304h-89z" />
<glyph unicode="*" d="M178 1067v119l316 -25l-187 258l109 60l139 -279l137 279l105 -58l-181 -260l314 25v-119l-312 23l177 -265l-107 -55l-133 283l-139 -287l-103 59l179 262z" />
<glyph unicode="+" horiz-adv-x="1351" d="M156 444v111h450v442h123v-442h451v-111h-451v-444h-123v444h-450z" />
<glyph unicode="," horiz-adv-x="569" d="M119 -246l104 422h170l-164 -422h-110z" />
<glyph unicode="-" horiz-adv-x="569" d="M27 494v108h516v-108h-516z" />
<glyph unicode="." horiz-adv-x="569" d="M197 0v176h163v-176h-163z" />
<glyph unicode="/" horiz-adv-x="569" d="M-18 -10l471 1485h129l-473 -1485h-127z" />
<glyph unicode="0" d="M94 731q0 350 119 533q57 86 150.5 135t199.5 49q121 0 220.5 -61.5t156.5 -169.5q94 -180 94 -486q0 -358 -124 -554.5t-349 -196.5q-467 -1 -467 751zM231 713q0 -297 84 -458t240 -161q166 0 253 158t87 455q0 307 -83 468.5t-241 161.5q-166 0 -253 -159.5 t-87 -464.5z" />
<glyph unicode="1" d="M238 1075v133q74 31 147 78q66 43 180 146h127v-1432h-135v1286q-90 -82 -178 -137q-49 -29 -141 -74z" />
<glyph unicode="2" d="M102 0v139q139 123 219 203t226 240q150 162 214 277.5t64 217.5q0 115 -77.5 182.5t-194.5 67.5q-129 0 -208 -75.5t-79 -202.5v-7h-149q2 184 121.5 295t316.5 111q190 0 305 -100.5t115 -266.5q0 -242 -342 -602q-82 -88 -365 -354h725v-125h-891z" />
<glyph unicode="3" d="M66 375h139q0 -123 94 -203t238 -80q152 0 247 83t95 216q0 131 -93.5 212t-244.5 81q-41 0 -80 -6v123q49 -6 82 -6q143 0 230 75.5t87 196.5q0 123 -88 196.5t-231 73.5q-289 0 -320 -274h-135q6 172 143 287q117 98 314 98q201 0 326.5 -106.5t125.5 -276.5 q0 -252 -288 -326q141 -29 225 -127t84 -231q0 -166 -125 -281q-137 -123 -365 -123q-193 0 -321 103q-135 109 -139 295z" />
<glyph unicode="4" d="M45 330v137l631 965h168v-994h227v-108h-227v-330h-133v330h-666zM162 438h551v858z" />
<glyph unicode="5" d="M111 348h147q4 -121 85 -191.5t212 -70.5q150 0 240 103.5t90 273.5q0 164 -84 260t-226 96q-113 0 -194.5 -61.5t-106.5 -163.5h-135l35 825h778v-108h-653l-25 -527q129 143 316 144q197 0 315.5 -128t118.5 -341q0 -217 -131 -349.5t-348 -132.5q-164 0 -287 82 q-143 94 -147 289z" />
<glyph unicode="6" d="M102 674q0 406 150 612q115 162 360 162q195 0 307.5 -99.5t114.5 -269.5h-145q-10 121 -82 185.5t-195 64.5q-186 0 -274 -151.5t-96 -489.5q102 231 383 232q195 0 311.5 -127t116.5 -340t-124 -343t-329 -130q-498 0 -498 694zM270 446q0 -156 90.5 -254t233.5 -98 q145 0 230 96.5t85 262.5q0 164 -82 259t-221 95q-150 0 -243 -100.5t-93 -260.5z" />
<glyph unicode="7" d="M80 1298v121h903v-125l-551 -1294h-156l568 1298h-764z" />
<glyph unicode="8" d="M78 377q0 141 90 240.5t217 119.5q-119 25 -202 107t-83 211q0 174 129 283.5t336 109.5q201 0 329 -105.5t128 -269.5q0 -258 -285 -334q137 -31 222 -126t85 -220q0 -182 -145 -307q-129 -109 -344 -109q-229 0 -358 123q-119 109 -119 277zM215 387q0 -135 93 -217 t245 -82q156 0 254 84t98 217q0 141 -95 217t-253 76q-156 0 -249 -81t-93 -214zM231 1061q0 -125 89.5 -195.5t242.5 -70.5q137 0 232.5 70.5t95.5 203.5q0 125 -90 198.5t-242 73.5q-145 0 -236.5 -77.5t-91.5 -202.5z" />
<glyph unicode="9" d="M76 993q0 201 127 328t329 127q133 0 239 -57.5t163 -161.5q86 -156 86 -453q0 -395 -115 -594q-57 -100 -160.5 -154.5t-234.5 -54.5q-166 0 -283 82q-143 100 -147 293h143q4 -74 27 -121q29 -63 99.5 -100t160.5 -37q281 0 344 340q27 139 35 342q-117 -227 -377 -227 q-193 0 -314.5 124.5t-121.5 323.5zM211 993q0 -154 83 -245t224 -91q152 0 245 95.5t93 251.5q0 145 -89 237t-228 92q-145 0 -236.5 -94t-91.5 -246z" />
<glyph unicode=":" horiz-adv-x="569" d="M201 852v176h164v-176h-164zM203 0v176h164v-176h-164z" />
<glyph unicode=";" horiz-adv-x="569" d="M119 -246l104 422h170l-164 -422h-110zM180 858v170h166v-170h-166z" />
<glyph unicode="&#x3c;" horiz-adv-x="1351" d="M158 436v121l1022 410v-123l-879 -348l879 -344v-123z" />
<glyph unicode="=" horiz-adv-x="1351" d="M156 250v110h1024v-110h-1024zM156 633v110h1024v-110h-1024z" />
<glyph unicode="&#x3e;" horiz-adv-x="1351" d="M158 29v123l876 344l-876 348v123l1022 -410v-121z" />
<glyph unicode="?" horiz-adv-x="1024" d="M213 1366v115q106 25 221 24q193 0 314.5 -92t121.5 -280q0 -121 -77 -224q-53 -70 -244 -252q-45 -43 -60.5 -72.5t-15.5 -72.5v-166h-113v150q0 66 3.5 92t21.5 62t59 75l148 137q143 135 143 275q0 125 -83 192.5t-234 67.5q-90 0 -205 -31zM336 0v170h162v-170h-162z " />
<glyph unicode="@" horiz-adv-x="1638" d="M55 705q0 340 235.5 564t592.5 224q303 0 493.5 -169t190.5 -439q0 -217 -123 -377t-291 -160q-70 0 -114 39t-44 102q0 31 13 72q-104 -213 -299 -213q-121 0 -197 84t-76 219q0 195 122 342.5t284 147.5q100 0 164.5 -49.5t83.5 -139.5l47 160h110l-119 -395 q-45 -150 -45 -203q0 -41 26 -64.5t73 -23.5q121 0 215 141.5t94 321.5q0 236 -168 382t-440 146q-324 0 -537 -202.5t-213 -512.5q0 -293 201 -478t518 -185q297 0 578 194l43 -55q-287 -215 -625 -215q-348 0 -570.5 207t-222.5 535zM565 649q0 -102 47 -162.5t127 -60.5 q88 0 160 81t104.5 182.5t32.5 185t-47 136t-125 52.5q-115 0 -207 -128t-92 -286z" />
<glyph unicode="A" horiz-adv-x="1366" d="M10 0l584 1479h158l589 -1479h-143l-160 406h-735l-156 -406h-137zM346 516h645l-319 838z" />
<glyph unicode="B" horiz-adv-x="1366" d="M205 0v1479h413q211 0 310 -39q96 -39 157.5 -128t61.5 -192q0 -133 -76 -225t-199 -123q152 -20 244 -122.5t92 -248.5q0 -166 -116 -270q-90 -82 -202 -106.5t-272 -24.5h-413zM338 119h268q154 0 232 18q100 23 163.5 101.5t63.5 183.5q0 111 -76 190 q-49 53 -116.5 75t-186.5 22h-348v-590zM338 825h321q82 0 140 15q94 23 149.5 96.5t55.5 171.5q0 129 -87.5 191.5t-218.5 62.5h-360v-537z" />
<glyph unicode="C" horiz-adv-x="1366" d="M125 739q0 360 170 562t473 202q217 0 348 -102q137 -111 137 -268h-143q-12 117 -106.5 185t-243.5 68q-129 0 -227.5 -54t-153.5 -147t-82 -203t-27 -232q0 -127 27 -239t83 -207t155.5 -150.5t232.5 -55.5q141 0 239.5 73t116.5 187h146q-31 -174 -172.5 -276 t-352.5 -102q-162 0 -283.5 61t-193 168.5t-107.5 240.5t-36 289z" />
<glyph unicode="D" horiz-adv-x="1478" d="M186 0v1479h400q162 0 282.5 -23.5t223.5 -97.5q133 -96 195.5 -259t62.5 -347q0 -295 -136.5 -499t-412.5 -241q-98 -12 -305 -12h-310zM319 119h302q287 0 435 162.5t148 451.5q0 190 -73.5 352t-227.5 230q-109 47 -323 47h-261v-1243z" />
<glyph unicode="E" horiz-adv-x="1251" d="M209 0v1479h878v-117h-745v-535h717v-116h-717v-592h776v-119h-909z" />
<glyph unicode="F" d="M195 0v1479h835v-117h-702v-535h678v-116h-678v-711h-133z" />
<glyph unicode="G" horiz-adv-x="1478" d="M129 745q0 338 179 551t464 213q207 0 351.5 -110.5t158.5 -284.5h-147q-29 135 -124.5 203.5t-240.5 68.5q-104 0 -189 -36.5t-140.5 -97t-92.5 -144.5t-53 -173t-16 -187q0 -293 125.5 -469.5t402.5 -176.5q195 0 354 52v477h-370v119h501v-689q-258 -74 -479 -73 q-346 0 -515 202.5t-169 554.5z" />
<glyph unicode="H" horiz-adv-x="1478" d="M203 0v1479h133v-652h807v652h133v-1479h-133v709h-807v-709h-133z" />
<glyph unicode="I" horiz-adv-x="569" d="M217 0v1479h133v-1479h-133z" />
<glyph unicode="J" horiz-adv-x="1024" d="M25 365h143q12 -113 80.5 -189t181.5 -76q106 0 184 74q94 92 95 309v996h133v-1004q0 -215 -68 -321q-106 -170 -350 -170q-154 0 -258 84q-129 104 -141 297z" />
<glyph unicode="K" horiz-adv-x="1251" d="M217 0v1479h135v-652l660 652h170l-682 -668l743 -811h-182l-709 772v-772h-135z" />
<glyph unicode="L" d="M203 0v1479h133v-1360h745v-119h-878z" />
<glyph unicode="M" horiz-adv-x="1933" d="M199 0v1479h211l561 -1289l559 1289h203v-1479h-131v1360l-576 -1360h-111l-585 1354v-1354h-131z" />
<glyph unicode="N" horiz-adv-x="1478" d="M195 0v1479h147l819 -1301v1301h127v-1479h-162l-802 1272v-1272h-129z" />
<glyph unicode="O" horiz-adv-x="1593" d="M137 743q0 360 173 562t483 202q330 0 495.5 -212t165.5 -552t-168 -553t-495 -213q-221 0 -372 108t-216.5 275.5t-65.5 382.5zM283 752q0 -303 138 -479.5t376 -176.5q236 0 372 173t136 472q0 301 -136.5 474.5t-371.5 173.5q-238 0 -376 -171t-138 -466z" />
<glyph unicode="P" horiz-adv-x="1251" d="M205 0v1479h413q152 0 221.5 -13.5t149.5 -60.5q90 -51 140.5 -140t50.5 -200q0 -215 -156 -328q-125 -88 -406 -88h-282v-649h-131zM336 768h285q129 0 192 12q106 20 163.5 94t57.5 191q0 297 -377 297h-321v-594z" />
<glyph unicode="Q" horiz-adv-x="1593" d="M137 745q0 354 176 558t482 204q319 0 490 -210t171 -539q0 -420 -266 -649q41 8 90 10q74 4 154 4h82v-123h-463q-37 0 -123 -6q-84 -8 -166 -8q-160 0 -283 60t-196.5 166.5t-110.5 240.5t-37 292zM281 752q0 -303 138 -479.5t376 -176.5q236 0 372 173t136 472 q0 301 -136.5 474.5t-371.5 173.5q-238 0 -376 -171t-138 -466z" />
<glyph unicode="R" horiz-adv-x="1366" d="M211 0v1479h541q207 0 324.5 -95.5t117.5 -263.5q0 -268 -285 -344q70 -12 113 -39q72 -43 100.5 -122.5t46.5 -288.5l13 -140q12 -135 53 -186h-154q-35 90 -45 233l-6 84q0 4 -2 33t-3 37t-4 36t-5 40l-6 37q-4 25 -10 39l-12 34q-7 20 -15 35t-18.5 29t-22.5 27 q-47 45 -158 45h-430v-709h-133zM344 827h285q125 0 192 11q104 16 168 92t64 180q0 78 -29 130t-83 77.5t-111.5 35t-133.5 9.5h-352v-535z" />
<glyph unicode="S" horiz-adv-x="1251" d="M119 385h139q0 -145 97.5 -218t258.5 -73q172 0 277.5 79t105.5 208q0 94 -56 151.5t-191 104.5l-150 51q-266 92 -362 186q-84 78 -84 230q0 182 132 289.5t355 107.5q188 0 325.5 -86t139.5 -258h-137q-2 113 -92.5 172.5t-225.5 59.5q-168 0 -266 -75t-98 -202 q0 -111 86 -174.5t321 -140.5q215 -72 291 -123q147 -100 148 -285q0 -182 -145.5 -294.5t-381.5 -112.5q-209 0 -344 104t-143 299z" />
<glyph unicode="T" d="M29 1362v117h1081v-117h-469v-1362h-133v1362h-479z" />
<glyph unicode="U" horiz-adv-x="1478" d="M201 571v908h129v-910q0 -143 30 -231q41 -119 143.5 -182.5t231.5 -63.5q139 0 250 68.5t145 195.5q20 76 21 207v916h127v-934q0 -178 -55 -291q-63 -133 -190.5 -205t-299.5 -72q-188 0 -327.5 95.5t-186.5 271.5q-18 67 -18 227z" />
<glyph unicode="V" horiz-adv-x="1251" d="M12 1479h146l477 -1332l471 1332h133l-534 -1479h-152z" />
<glyph unicode="W" horiz-adv-x="2048" d="M20 1479h142l346 -1346l434 1346h162l452 -1346l345 1346h129l-390 -1479h-182l-438 1335l-426 -1335h-188z" />
<glyph unicode="X" horiz-adv-x="1251" d="M14 0l527 762l-500 717h174l418 -623l434 623h150l-512 -717l528 -762h-170l-449 662l-448 -662h-152z" />
<glyph unicode="Y" horiz-adv-x="1251" d="M16 1479h170l453 -715l453 715h143l-539 -844v-635h-135v641z" />
<glyph unicode="Z" d="M39 0v137l879 1225h-822v117h981v-127l-893 -1233h916v-119h-1061z" />
<glyph unicode="[" horiz-adv-x="569" d="M156 -246v1782h299v-86h-185v-1612h185v-84h-299z" />
<glyph unicode="\" horiz-adv-x="569" d="M-18 1475h127l473 -1485h-129z" />
<glyph unicode="]" horiz-adv-x="569" d="M100 -162h185v1612h-185v86h297v-1782h-297v84z" />
<glyph unicode="^" horiz-adv-x="1351" d="M264 567l344 850h119l344 -850h-129l-276 707l-273 -707h-129z" />
<glyph unicode="_" horiz-adv-x="1024" d="M0 -154h1024v-102h-1024v102z" />
<glyph unicode="`" horiz-adv-x="569" d="M41 1475h164l184 -295h-90z" />
<glyph unicode="a" horiz-adv-x="1024" d="M74 281q0 346 551 346q35 0 120 -6q0 18 1.5 42.5t1.5 28.5q0 141 -56.5 201.5t-197.5 60.5q-219 0 -244 -186h-131q16 143 116.5 215t260.5 72q162 0 268 -70q70 -47 89 -113.5t19 -175.5q0 -23 -1 -87t-1 -107q-2 -80 -2 -164q0 -88 6 -182q8 -94 15 -156h-123 q0 29 -3 88t-3 90q-51 -92 -142.5 -146.5t-207.5 -54.5q-145 0 -240.5 86.5t-95.5 217.5zM201 287q0 -92 63.5 -149.5t165.5 -57.5q166 0 254 121q55 76 59 254l2 73h-49h-82q-27 0 -89 -5t-97 -13t-84 -25.5t-75.5 -42t-47 -64.5t-20.5 -91z" />
<glyph unicode="b" d="M137 0q6 123 6 244v1235h125v-605q53 86 149.5 133.5t205.5 47.5q199 0 310 -141.5t111 -391.5t-114.5 -397.5t-311.5 -147.5q-225 0 -350 185l-8 -162h-123zM272 524q0 -182 81 -311t253 -129q143 0 225 112.5t82 307.5q0 215 -84 329.5t-239 114.5q-152 0 -235 -111.5 t-83 -312.5z" />
<glyph unicode="c" horiz-adv-x="1024" d="M94 504q0 254 124 402.5t335 148.5q164 0 277.5 -95.5t115.5 -254.5h-141q-23 244 -252 243q-158 0 -242 -112.5t-84 -325.5q0 -201 85 -312.5t237 -111.5q113 0 183.5 64.5t76.5 168.5h137q-16 -168 -121.5 -255t-277.5 -87q-207 0 -330 142.5t-123 384.5z" />
<glyph unicode="d" d="M92 514q0 254 112.5 396.5t311.5 142.5q233 0 346 -174v600h125v-1233q0 -18 3 -105.5t3 -140.5h-116l-9 168q-47 -86 -141 -138.5t-207 -52.5q-201 0 -314.5 143.5t-113.5 393.5zM229 514q0 -426 316 -426q115 0 189.5 68.5t101 161t26.5 204.5q0 203 -83 314.5 t-234 111.5q-117 0 -190.5 -67.5t-99.5 -158.5t-26 -208z" />
<glyph unicode="e" d="M102 502q0 242 120 397.5t353 155.5q215 0 335 -145.5t120 -401.5v-12h-794q2 -193 94 -301.5t250 -108.5q117 0 198.5 63.5t110.5 178.5h129q-31 -160 -150.5 -255.5t-292.5 -95.5q-225 0 -349 148t-124 377zM240 598h657q-10 164 -99 258t-233 94q-133 0 -220 -93 t-105 -259z" />
<glyph unicode="f" horiz-adv-x="681" d="M45 920v108h201v219q0 76 10 111t39 67q61 68 188 68q70 0 129 -12v-107q-31 6 -77 6q-70 0 -103 -16q-35 -14 -48 -47t-13 -100v-189h233v-108h-233v-920h-125v920h-201z" />
<glyph unicode="g" d="M90 535q0 182 64 299q57 106 154.5 163.5t217.5 57.5q225 0 348 -187l3 60q2 16 3 49t1 51h125q-10 -188 -11 -229v-586q0 -227 -20 -332q-29 -141 -141.5 -217t-294.5 -76q-109 0 -193 26t-145.5 93.5t-65.5 173.5h135q6 -100 86 -144t195 -44q143 0 225 82 q94 94 94 336v86q-4 -4 -4 0q-39 -86 -132 -136.5t-210 -50.5q-205 0 -319.5 138.5t-114.5 386.5zM229 526q0 -186 88.5 -301.5t231.5 -115.5t231 118.5t88 307.5q0 178 -92 294.5t-233 116.5q-145 0 -229.5 -113.5t-84.5 -306.5z" />
<glyph unicode="h" d="M164 0v1479h125v-607q111 172 332 172q354 0 354 -423v-621h-125v594q0 133 -27 205q-25 61 -89 98t-146 37q-141 0 -220 -97.5t-79 -240.5v-596h-125z" />
<glyph unicode="i" horiz-adv-x="454" d="M156 1323v156h145v-156h-145zM164 0v1028h125v-1028h-125z" />
<glyph unicode="j" horiz-adv-x="454" d="M8 -289q16 -2 35 -2q68 0 96.5 35t28.5 117v1167h125v-1206q0 -111 -45 -162q-53 -61 -187 -61q-4 0 -53 4v108zM154 1323v156h145v-156h-145z" />
<glyph unicode="k" horiz-adv-x="1024" d="M174 0v1479h125v-881l494 430h159l-518 -444l561 -584h-176l-520 557v-557h-125z" />
<glyph unicode="l" horiz-adv-x="454" d="M170 0v1479h125v-1479h-125z" />
<glyph unicode="m" horiz-adv-x="1820" d="M152 1028h122l11 -149q117 176 325 176q242 0 324 -221q86 117 170 169t188 52q178 0 269.5 -110.5t91.5 -285.5v-659h-125v647q0 139 -62.5 218t-185.5 79q-84 0 -162 -48t-114 -124q-35 -70 -35 -197v-575h-125v649q0 139 -68.5 220t-185.5 81q-123 0 -211 -93 t-88 -224v-633h-125v606q0 16 -4 176q-4 146 -10 246z" />
<glyph unicode="n" d="M152 1028h120l9 -170q49 88 140 142.5t202 54.5q170 0 270 -117q82 -96 82 -293v-645h-125v608q0 100 -14 160q-20 80 -85 127t-157 47q-195 0 -275 -174q-33 -68 -32 -182v-586h-125v729q0 70 -2 127q0 41 -2 73t-4 58.5t-2 40.5z" />
<glyph unicode="o" d="M90 520q0 244 131 389.5t350 145.5q231 0 354.5 -151.5t123.5 -389.5q0 -248 -129 -392.5t-349 -144.5q-223 0 -352 146.5t-129 396.5zM225 522q0 -205 92.5 -319.5t253.5 -114.5q156 0 249 120t93 320q0 193 -92 306.5t-248 113.5q-160 0 -254 -114.5t-94 -311.5z" />
<glyph unicode="p" d="M131 1028h123l8 -156q139 178 344 179q203 0 320.5 -141.5t117.5 -387.5q0 -252 -118.5 -398.5t-323.5 -146.5q-213 0 -334 179v-545h-123v1020q0 118 -14 397zM268 520q0 -176 76 -305t240 -129q170 0 247.5 127t77.5 309q0 199 -86 313.5t-233 114.5q-168 0 -245 -126 t-77 -304z" />
<glyph unicode="q" d="M94 502q0 252 117 400.5t313 148.5q111 0 205 -48.5t148 -132.5l4 158h123q0 -12 -4.5 -59t-6.5 -82q-6 -104 -6 -164v-1116h-125v559q-115 -188 -334 -189q-201 0 -317.5 140.5t-116.5 384.5zM231 506q0 -197 83 -308.5t231 -111.5q137 0 227 113q92 115 92 333 q0 190 -88 302t-237 112q-145 0 -226.5 -114.5t-81.5 -325.5z" />
<glyph unicode="r" horiz-adv-x="681" d="M158 1028h123q2 -16 3 -35.5t2 -43t1 -36.5l2 -41q33 66 86 107q80 59 203 59q39 0 73 -2v-127q-45 6 -69 6q-129 0 -203 -67q-86 -78 -86 -262v-586h-125v838q0 71 -10 190z" />
<glyph unicode="s" horiz-adv-x="1024" d="M90 279h137q16 -203 273 -203q131 0 205.5 54t74.5 149q0 47 -14 79.5t-49 53t-61.5 30t-77.5 23.5l-211 55q-129 35 -184.5 94.5t-55.5 173.5q0 123 106.5 195t276.5 72q350 0 375 -283h-137q-16 184 -252 184q-113 0 -176.5 -45t-63.5 -127q0 -33 12.5 -58.5 t26.5 -39.5t46 -28.5t49.5 -18.5t55.5 -14l211 -56q125 -33 190.5 -91t65.5 -179q0 -145 -113.5 -233.5t-301.5 -88.5q-186 0 -295 80.5t-113 221.5z" />
<glyph unicode="t" horiz-adv-x="681" d="M51 920v108h197v219l125 53v-272h235v-108h-235v-652q0 -86 33.5 -128t121.5 -42q45 0 95 21v-107q-63 -20 -136 -20q-240 0 -239 221v707h-197z" />
<glyph unicode="u" d="M164 381v647h125v-602q0 -324 254 -324q92 0 154.5 33t93 94.5t43 127t12.5 151.5v520h125v-874q0 -51 4 -154h-121l-4 160q-49 -80 -137 -126t-187 -46q-176 0 -269 106.5t-93 286.5z" />
<glyph unicode="v" horiz-adv-x="1024" d="M25 1028h135l358 -866l342 866h135l-422 -1028h-122z" />
<glyph unicode="w" horiz-adv-x="1705" d="M31 1028h145l297 -866l313 866h146l305 -858l303 858h129l-381 -1028h-117l-317 879l-324 -879h-124z" />
<glyph unicode="x" horiz-adv-x="1024" d="M37 0l397 526l-375 502h164l289 -403l299 403h143l-364 -498l401 -530h-162l-321 436l-318 -436h-153z" />
<glyph unicode="y" horiz-adv-x="1024" d="M27 1028h149l344 -860l342 860h133l-565 -1415h-135l156 391z" />
<glyph unicode="z" horiz-adv-x="909" d="M82 0v119l588 801h-572v108h717v-115l-584 -804h598v-109h-747z" />
<glyph unicode="{" horiz-adv-x="569" d="M-49 606v78q195 12 254 127q27 53 26 178v66q0 158 15.5 227.5t62.5 128.5q88 113 309 125v-78q-152 -8 -217 -100q-51 -72 -51 -215v-96q0 -197 -43 -273q-59 -106 -211 -129q109 -18 172 -76q31 -27 49.5 -63.5t24.5 -95t7 -79t1 -89.5v-76q0 -96 11.5 -144.5 t39.5 -89.5q70 -100 217 -100v-78q-219 10 -309 125q-45 55 -61.5 124t-16.5 208v90q0 53 -2 82t-16 71t-43 70q-63 64 -219 82z" />
<glyph unicode="|" horiz-adv-x="454" d="M166 -438v2048h123v-2048h-123z" />
<glyph unicode="}" horiz-adv-x="569" d="M-49 -168q147 0 217 100q29 41 40 89.5t11 144.5v76q0 176 27 243q18 51 55 84q63 57 172 76q-152 23 -211 129q-43 76 -43 273v96q0 143 -51 215q-66 92 -217 100v78q221 -12 309 -125q47 -59 62.5 -129t15.5 -227v-66q0 -125 27 -178q59 -115 253 -127v-78 q-156 -18 -219 -82q-29 -29 -43 -70.5t-16 -70.5t-2 -82v-90q0 -139 -16.5 -208t-61.5 -124q-90 -115 -309 -125v78z" />
<glyph unicode="~" horiz-adv-x="1351" d="M133 352q12 80 27 121q29 72 89 114t136 42q74 0 201 -43l209 -70q111 -37 161 -37q70 0 119 53q31 35 47 109h82q-14 -127 -79.5 -199.5t-170.5 -72.5q-61 0 -161 30q-119 35 -226 74q-133 47 -186 47q-63 0 -108.5 -46t-55.5 -122h-84z" />
<glyph unicode="&#xa3;" d="M94 768v111h148v102q0 154 27.5 238t97.5 153q109 109 321 109q184 0 284.5 -84t106.5 -242h-145q-4 104 -67.5 160.5t-178.5 56.5q-162 0 -239 -98q-70 -86 -70 -309v-86h332v-111h-332v-649h655v-119h-911v119h119v649h-148z" />
<glyph unicode="&#xa9;" horiz-adv-x="1638" d="M49 741q0 317 226.5 542.5t545.5 225.5q317 0 542.5 -225t225.5 -543q0 -313 -227 -542.5t-535 -229.5q-328 0 -553 224t-225 548zM172 754q0 -293 181.5 -480.5t467.5 -187.5q281 0 463 185.5t182 469.5q0 283 -182 470.5t-463 187.5q-276 0 -462.5 -186.5 t-186.5 -458.5zM430 750q0 197 114.5 317.5t303.5 120.5q307 0 362 -291h-112q-53 188 -252 188q-131 0 -212 -92t-81 -241.5t85 -247.5t214 -98q96 0 161.5 52t84.5 144h112q-20 -141 -114.5 -220t-243.5 -79q-184 0 -303 126t-119 321z" />
<glyph unicode="&#xab;" d="M217 537l209 393h104l-184 -404l186 -393h-106zM586 537l209 393h104l-186 -404l188 -393h-106z" />
<glyph unicode="&#xad;" horiz-adv-x="569" d="M27 494v108h516v-108h-516z" />
<glyph unicode="&#xae;" horiz-adv-x="819" d="M25 1124q0 158 113.5 271.5t273.5 113.5q158 0 271.5 -112.5t113.5 -270.5q0 -164 -106.5 -271t-276.5 -116v-2q-172 8 -280.5 116.5t-108.5 270.5zM86 1122.5q0 -139.5 91 -231.5t229 -92q145 0 237 90t92 233q0 141 -91 232.5t-230 91.5q-141 0 -234.5 -92 t-93.5 -231.5zM262 928v395h172q137 0 137 -109q0 -51 -28.5 -77.5t-93.5 -32.5l118 -176h-57l-111 176h-86v-176h-51zM313 1149h93q63 0 87.5 14.5t24.5 50.5q0 63 -96 64h-109v-129z" />
<glyph unicode="&#xb0;" horiz-adv-x="819" d="M94 1141q0 127 90 217t217 90t217.5 -90t90.5 -217t-90.5 -216t-217.5 -89t-217 89t-90 216zM203 1141q0 -82 58 -140.5t140 -58.5t141.5 58.5t59.5 140.5q0 84 -59.5 142t-141.5 58t-140 -58t-58 -142z" />
<glyph unicode="&#xbb;" d="M217 930h109l206 -404l-206 -393h-105l185 404zM586 930h106l209 -404l-209 -393h-104l184 404z" />
<glyph unicode="&#x2c6;" horiz-adv-x="1351" d="M264 567l344 850h119l344 -850h-129l-276 707l-273 -707h-129z" />
<glyph unicode="&#x2da;" horiz-adv-x="569" d="M-307 428q0 127 90 217t217 90t217.5 -90t90.5 -217t-90.5 -216t-217.5 -89t-217 89t-90 216zM-198 428q0 -82 58 -140.5t140 -58.5t141.5 58.5t59.5 140.5q0 84 -59.5 142t-141.5 58t-140 -58t-58 -142z" />
<glyph unicode="&#x2dc;" horiz-adv-x="569" d="M-535 123q12 80 27 121q29 72 89 114t136 42q74 0 201 -43l209 -70q111 -37 161 -37q70 0 119 53q31 35 47 109h82q-14 -127 -79.5 -199.5t-170.5 -72.5q-61 0 -161 30q-119 35 -226 74q-133 47 -186 47q-63 0 -108.5 -46t-55.5 -122h-84z" />
<glyph unicode="&#x400;" horiz-adv-x="1251" d="M344 1926h164l184 -295h-90zM209 0v1479h878v-117h-745v-535h717v-116h-717v-592h776v-119h-909z" />
<glyph unicode="&#x401;" horiz-adv-x="1251" d="M209 0v1479h878v-117h-745v-535h717v-116h-717v-592h776v-119h-909zM373 1718v180h151v-180h-151zM729 1718v180h152v-180h-152z" />
<glyph unicode="&#x402;" horiz-adv-x="1515" d="M29 1362v117h1081v-117h-469v-498q162 63 342 64q127 0 218 -44t141.5 -123t73 -174t22.5 -214q0 -264 -123 -411.5t-348 -147.5h-70v112h70q164 0 251 123t87 342q0 420 -328 420q-158 0 -336 -63v-748h-135v1362h-477z" />
<glyph unicode="&#x403;" d="M195 0v1479h835v-117h-702v-1362h-133zM578 1606l186 292h164l-260 -292h-90z" />
<glyph unicode="&#x404;" horiz-adv-x="1366" d="M123 739q0 360 170 562t473 202q217 0 348 -102q137 -111 137 -268h-143q-12 117 -106.5 185t-243.5 68q-229 0 -350 -159.5t-138 -401.5h678v-118h-680q4 -123 34 -227.5t87 -192.5t153.5 -138.5t223.5 -50.5q141 0 239.5 73t116.5 187h146q-31 -174 -172.5 -276 t-352.5 -102q-162 0 -283.5 61t-193 168.5t-107.5 240.5t-36 289z" />
<glyph unicode="&#x405;" horiz-adv-x="1251" d="M119 385h139q0 -145 97.5 -218t258.5 -73q172 0 277.5 79t105.5 208q0 94 -56 151.5t-191 104.5l-150 51q-266 92 -362 186q-84 78 -84 230q0 182 132 289.5t355 107.5q188 0 325.5 -86t139.5 -258h-137q-2 113 -92.5 172.5t-225.5 59.5q-168 0 -266 -75t-98 -202 q0 -111 86 -174.5t321 -140.5q215 -72 291 -123q147 -100 148 -285q0 -182 -145.5 -294.5t-381.5 -112.5q-209 0 -344 104t-143 299z" />
<glyph unicode="&#x406;" horiz-adv-x="569" d="M217 0v1479h133v-1479h-133z" />
<glyph unicode="&#x407;" horiz-adv-x="569" d="M31 1718v180h151v-180h-151zM217 0v1479h133v-1479h-133zM387 1718v180h152v-180h-152z" />
<glyph unicode="&#x408;" horiz-adv-x="1024" d="M25 365h143q12 -113 80.5 -189t181.5 -76q106 0 184 74q94 92 95 309v996h133v-1004q0 -215 -68 -321q-106 -170 -350 -170q-154 0 -258 84q-129 104 -141 297z" />
<glyph unicode="&#x409;" horiz-adv-x="2119" d="M18 6v115q12 -6 60 -6q45 0 82 17.5t62.5 56t44 75.5t29.5 105.5t17 111.5t9.5 127t3.5 121v121v45v584h868v-652h360q225 0 353.5 -109.5t128.5 -303.5q0 -197 -127 -305.5t-355 -108.5h-493v1362h-602v-594q0 -444 -111 -635q-84 -141 -242 -141q-55 0 -88 14z M1194 119h324q190 0 282 72.5t92 222.5q0 295 -374 295h-324v-590z" />
<glyph unicode="&#x40a;" horiz-adv-x="2119" d="M203 0v1479h133v-650h725v650h133v-652h360q225 0 353.5 -109.5t128.5 -303.5q0 -197 -127 -305.5t-355 -108.5h-493v707h-725v-707h-133zM1194 119h324q190 0 282 72.5t92 222.5q0 295 -374 295h-324v-590z" />
<glyph unicode="&#x40b;" horiz-adv-x="1556" d="M29 1362v117h1081v-117h-469v-498q184 55 332 56q111 0 193.5 -21.5t151 -73t104.5 -151t36 -244.5v-430h-133v453q0 354 -358 354q-82 0 -326 -51v-756h-135v1362h-477z" />
<glyph unicode="&#x40c;" horiz-adv-x="1251" d="M217 0v1479h135v-652l660 652h170l-682 -668l743 -811h-182l-709 772v-772h-135zM578 1606l186 292h164l-260 -292h-90z" />
<glyph unicode="&#x40d;" horiz-adv-x="1478" d="M436 1926h164l184 -295h-90zM203 0v1479h133v-1289h6l766 1289h168v-1479h-133v1311h-6l-783 -1311h-151z" />
<glyph unicode="&#x40e;" horiz-adv-x="1251" d="M12 1479h160l457 -922l477 922h135l-749 -1479h-150l213 414zM352 1901h80q41 -145 195 -146q156 0 200 146h82q-12 -127 -85.5 -195t-198.5 -68q-121 0 -191 67t-82 196z" />
<glyph unicode="&#x40f;" horiz-adv-x="1478" d="M203 0v1479h133v-1360h807v1360h133v-1479h-453v-330h-133v330h-487z" />
<glyph unicode="&#x410;" horiz-adv-x="1366" d="M10 0l584 1479h158l589 -1479h-143l-160 406h-735l-156 -406h-137zM346 516h645l-319 838z" />
<glyph unicode="&#x411;" horiz-adv-x="1366" d="M205 0v1479h938v-117h-805v-531h444q236 0 359 -105t123 -310q0 -416 -482 -416h-577zM338 119h407q375 0 375 299q0 297 -375 297h-407v-596z" />
<glyph unicode="&#x412;" horiz-adv-x="1366" d="M205 0v1479h413q211 0 310 -39q96 -39 157.5 -128t61.5 -192q0 -133 -76 -225t-199 -123q152 -20 244 -122.5t92 -248.5q0 -166 -116 -270q-90 -82 -202 -106.5t-272 -24.5h-413zM338 119h268q154 0 232 18q100 23 163.5 101.5t63.5 183.5q0 111 -76 190 q-49 53 -116.5 75t-186.5 22h-348v-590zM338 825h321q82 0 140 15q94 23 149.5 96.5t55.5 171.5q0 129 -87.5 191.5t-218.5 62.5h-360v-537z" />
<glyph unicode="&#x413;" d="M195 0v1479h835v-117h-702v-1362h-133z" />
<glyph unicode="&#x414;" horiz-adv-x="1478" d="M39 119h127q150 201 210 454.5t60 581.5v324h821v-1360h181v-449h-129v330h-1141v-330h-129v449zM326 119h798v1243h-557v-318q0 -254 -60 -504.5t-181 -420.5z" />
<glyph unicode="&#x415;" horiz-adv-x="1251" d="M209 0v1479h878v-117h-745v-535h717v-116h-717v-592h776v-119h-909z" />
<glyph unicode="&#x416;" horiz-adv-x="1914" d="M-10 0l743 811l-682 668h168l658 -652h4v652h133v-652h4l657 652h168l-682 -668l744 -811h-183l-704 772h-4v-772h-133v772h-4l-705 -772h-182z" />
<glyph unicode="&#x417;" horiz-adv-x="1251" d="M106 395h144q10 -145 99 -223t251 -78q168 0 273.5 90t105.5 232q0 131 -96.5 213t-245.5 82q-39 0 -96 -6v135q29 -2 75 -2q143 0 231.5 75.5t88.5 200.5q0 121 -88 196.5t-231.5 75.5t-233.5 -79q-66 -57 -84 -172h-147q6 86 24 135q47 111 163 174t271 63 q213 0 340 -107.5t127 -287.5q0 -166 -112 -258q-49 -39 -148 -68v-4q104 -29 160 -71q143 -115 143 -310q0 -190 -144.5 -307t-375.5 -117q-348 0 -457 244q-29 68 -37 174z" />
<glyph unicode="&#x418;" horiz-adv-x="1478" d="M203 0v1479h133v-1289h6l766 1289h168v-1479h-133v1311h-6l-783 -1311h-151z" />
<glyph unicode="&#x419;" horiz-adv-x="1478" d="M203 0v1479h133v-1289h6l766 1289h168v-1479h-133v1311h-6l-783 -1311h-151zM479 1901h80q41 -145 195 -146q156 0 200 146h82q-12 -127 -85.5 -195t-198.5 -68q-121 0 -191 67t-82 196z" />
<glyph unicode="&#x41a;" horiz-adv-x="1251" d="M217 0v1479h135v-652l660 652h170l-682 -668l743 -811h-182l-709 772v-772h-135z" />
<glyph unicode="&#x41b;" horiz-adv-x="1427" d="M29 6v115q12 -6 59 -6q45 0 82 17.5t62.5 56t44 75.5t29.5 105.5l17.5 111.5t9.5 127t3 121v121v45v584h889v-1479h-133v1362h-623v-594q0 -444 -111 -635q-84 -141 -241 -141q-55 0 -88 14z" />
<glyph unicode="&#x41c;" horiz-adv-x="1933" d="M199 0v1479h211l561 -1289l559 1289h203v-1479h-131v1360l-576 -1360h-111l-585 1354v-1354h-131z" />
<glyph unicode="&#x41d;" horiz-adv-x="1478" d="M203 0v1479h133v-652h807v652h133v-1479h-133v709h-807v-709h-133z" />
<glyph unicode="&#x41e;" horiz-adv-x="1593" d="M137 743q0 360 173 562t483 202q330 0 495.5 -212t165.5 -552t-168 -553t-495 -213q-221 0 -372 108t-216.5 275.5t-65.5 382.5zM283 752q0 -303 138 -479.5t376 -176.5q236 0 372 173t136 472q0 301 -136.5 474.5t-371.5 173.5q-238 0 -376 -171t-138 -466z" />
<glyph unicode="&#x41f;" horiz-adv-x="1478" d="M203 0v1479h1073v-1479h-133v1362h-807v-1362h-133z" />
<glyph unicode="&#x420;" horiz-adv-x="1251" d="M205 0v1479h413q152 0 221.5 -13.5t149.5 -60.5q90 -51 140.5 -140t50.5 -200q0 -215 -156 -328q-125 -88 -406 -88h-282v-649h-131zM336 768h285q129 0 192 12q106 20 163.5 94t57.5 191q0 297 -377 297h-321v-594z" />
<glyph unicode="&#x421;" horiz-adv-x="1366" d="M125 739q0 360 170 562t473 202q217 0 348 -102q137 -111 137 -268h-143q-12 117 -106.5 185t-243.5 68q-129 0 -227.5 -54t-153.5 -147t-82 -203t-27 -232q0 -127 27 -239t83 -207t155.5 -150.5t232.5 -55.5q141 0 239.5 73t116.5 187h146q-31 -174 -172.5 -276 t-352.5 -102q-162 0 -283.5 61t-193 168.5t-107.5 240.5t-36 289z" />
<glyph unicode="&#x422;" d="M29 1362v117h1081v-117h-469v-1362h-133v1362h-479z" />
<glyph unicode="&#x423;" horiz-adv-x="1251" d="M12 1479h160l457 -922l477 922h135l-749 -1479h-150l213 414z" />
<glyph unicode="&#x424;" horiz-adv-x="1619" d="M125 762q0 291 168 442.5t450 151.5v123h134v-123q283 0 450.5 -151.5t167.5 -442.5q0 -285 -167 -452t-451 -167v-143h-134v143q-285 0 -451.5 167t-166.5 452zM274 760q0 -244 122 -374t347 -130v989q-469 0 -469 -485zM877 256q225 0 347 130t122 374q0 485 -469 485 v-989z" />
<glyph unicode="&#x425;" horiz-adv-x="1251" d="M14 0l527 762l-500 717h174l418 -623l434 623h150l-512 -717l528 -762h-170l-449 662l-448 -662h-152z" />
<glyph unicode="&#x426;" horiz-adv-x="1515" d="M203 0v1481h133v-1362h807v1362h133v-1362h168v-449h-129v330h-1112z" />
<glyph unicode="&#x427;" horiz-adv-x="1366" d="M152 1210v269h133v-291q0 -217 84 -315.5t272 -98.5q168 0 389 53v652h133v-1479h-133v717q-10 -4 -24 -6q-246 -53 -371 -54q-254 0 -368.5 130t-114.5 423z" />
<glyph unicode="&#x428;" horiz-adv-x="2183" d="M203 0v1479h133v-1360h688v1360h133v-1360h688v1360h133v-1479h-1775z" />
<glyph unicode="&#x429;" horiz-adv-x="2217" d="M203 0v1479h133v-1360h688v1360h133v-1360h688v1360h133v-1360h168v-449h-129v330h-1814z" />
<glyph unicode="&#x42a;" horiz-adv-x="1478" d="M29 1362v117h536v-652h361q225 0 353 -109.5t128 -303.5q0 -197 -127 -305.5t-354 -108.5h-494v1362h-403zM565 119h324q375 0 375 293q0 297 -375 297h-324v-590z" />
<glyph unicode="&#x42b;" horiz-adv-x="1744" d="M205 0v1479h133v-652h360q225 0 353.5 -109.5t128.5 -303.5q0 -197 -127 -305.5t-355 -108.5h-493zM338 119h324q375 0 374 293q0 297 -374 297h-324v-590zM1409 0v1479h133v-1479h-133z" />
<glyph unicode="&#x42c;" horiz-adv-x="1251" d="M205 0v1479h133v-652h360q225 0 353.5 -109.5t128.5 -303.5q0 -197 -127 -305.5t-355 -108.5h-493zM338 119h324q375 0 374 293q0 297 -374 297h-324v-590z" />
<glyph unicode="&#x42d;" horiz-adv-x="1366" d="M104 358h148q18 -115 117.5 -187.5t240.5 -72.5q121 0 217.5 52.5t153.5 140.5t88 193.5t35 222.5h-680v118h678q-8 115 -38 212.5t-85 178t-146.5 125.5t-211.5 45q-150 0 -247.5 -68.5t-109.5 -184.5h-143q4 100 49 174.5t117.5 115.5t154.5 60.5t170 19.5 q303 0 470 -200.5t167 -563.5q0 -328 -163.5 -543.5t-479.5 -215.5q-209 0 -341 100t-161 278z" />
<glyph unicode="&#x42e;" horiz-adv-x="2043" d="M203 0v1479h133v-654h256q20 324 191 503t462 179q330 0 496 -212t166 -552t-168 -553t-496 -213q-317 0 -479 203t-174 527h-254v-707h-133zM735 752q0 -303 138.5 -479.5t375.5 -176.5q236 0 372 173t136 472q0 301 -136 474.5t-372 173.5q-238 0 -376 -171t-138 -466z " />
<glyph unicode="&#x42f;" horiz-adv-x="1366" d="M135 0q20 35 29 59q20 57 35 222q10 164 28 262q18 106 72.5 156.5t161.5 74.5v4q-137 43 -211 119t-74 211q0 203 152 297q68 43 144.5 58.5t203.5 15.5h500v-1479h-134v709h-383q-70 0 -110.5 -4.5t-77.5 -20.5t-55.5 -39.5t-34.5 -73t-24.5 -106.5t-16.5 -154l-6 -67 q-12 -143 -45 -244h-154zM319 1100q0 -74 25 -126t61.5 -81t97 -44t112 -19.5t126.5 -4.5h301v537h-315q-197 0 -268 -31q-140 -55 -140 -231z" />
<glyph unicode="&#x430;" horiz-adv-x="1024" d="M74 281q0 346 551 346q35 0 120 -6q0 18 1.5 42.5t1.5 28.5q0 141 -56.5 201.5t-197.5 60.5q-219 0 -244 -186h-131q16 143 116.5 215t260.5 72q162 0 268 -70q70 -47 89 -113.5t19 -175.5q0 -23 -1 -87t-1 -107q-2 -80 -2 -164q0 -88 6 -182q8 -94 15 -156h-123 q0 29 -3 88t-3 90q-51 -92 -142.5 -146.5t-207.5 -54.5q-145 0 -240.5 86.5t-95.5 217.5zM201 287q0 -92 63.5 -149.5t165.5 -57.5q166 0 254 121q55 76 59 254l2 73h-49h-82q-27 0 -89 -5t-97 -13t-84 -25.5t-75.5 -42t-47 -64.5t-20.5 -91z" />
<glyph unicode="&#x431;" d="M90 585.5q0 245.5 35 406.5t123 261q53 59 131 96t127 46.5t153 23.5q143 18 166 60h168q-23 -74 -82 -115t-178 -55q-203 -23 -270 -47q-84 -31 -144 -95q-59 -63 -90.5 -167.5t-35.5 -196.5l4 -4q127 256 395 256q186 0 317 -135q139 -141 140 -406q0 -248 -129 -392.5 t-349 -144.5q-281 0 -405 228q-76 135 -76 380.5zM225 522q0 -205 92.5 -319.5t253.5 -114.5q156 0 249 120t93 320q0 193 -92 306.5t-248 113.5q-160 0 -254 -114.5t-94 -311.5z" />
<glyph unicode="&#x432;" horiz-adv-x="1064" d="M154 0v1028h454q143 0 228.5 -65.5t85.5 -178.5q0 -86 -49.5 -153.5t-131.5 -89.5v-2q104 -16 166 -86t62 -164q0 -127 -87 -208t-227 -81h-501zM279 106h327q109 0 169.5 50.5t60.5 136.5q0 88 -62.5 135t-179.5 47h-315v-369zM279 582h288q221 0 221 172q0 82 -54 126 t-154 44h-301v-342z" />
<glyph unicode="&#x433;" horiz-adv-x="909" d="M164 0v1028h670v-108h-545v-920h-125z" />
<glyph unicode="&#x434;" d="M23 109h114q127 141 164 360q25 154 25 436v123h647v-919h145v-398h-125v289h-846v-289h-124v398zM289 109h559v811h-397v-35q0 -553 -162 -776z" />
<glyph unicode="&#x435;" d="M102 502q0 242 120 397.5t353 155.5q215 0 335 -145.5t120 -401.5v-12h-794q2 -193 94 -301.5t250 -108.5q117 0 198.5 63.5t110.5 178.5h129q-31 -160 -150.5 -255.5t-292.5 -95.5q-225 0 -349 148t-124 377zM240 598h657q-10 164 -99 258t-233 94q-133 0 -220 -93 t-105 -259z" />
<glyph unicode="&#x436;" horiz-adv-x="1515" d="M20 0l547 535l-506 493h158l477 -473v473h123v-473l477 473h158l-506 -493l547 -535h-162l-514 512v-512h-123v512l-514 -512h-162z" />
<glyph unicode="&#x437;" horiz-adv-x="1024" d="M113 287h133q12 -90 57 -131q74 -68 219 -68q123 0 193.5 52.5t70.5 146.5q0 211 -266 202q-61 0 -86 -4v109l76 -4q121 0 186.5 50t65.5 138q0 78 -57.5 124t-169.5 46q-219 0 -250 -178h-129q10 82 30 121q80 164 349 164q164 0 256 -70t92 -192q0 -94 -52.5 -160 t-146.5 -86v-2q102 -12 169 -78t67 -166q0 -152 -107.5 -238t-290.5 -86q-211 0 -327 111q-74 70 -82 199z" />
<glyph unicode="&#x438;" d="M164 0v1028h125v-862h6l536 862h144v-1028h-125v848h-6l-537 -848h-143z" />
<glyph unicode="&#x439;" d="M164 0v1028h125v-862h6l536 862h144v-1028h-125v848h-6l-537 -848h-143zM309 1462h68q39 -145 198.5 -145t204.5 145h70q-10 -121 -82 -185.5t-195 -64.5q-241 0 -264 250z" />
<glyph unicode="&#x43a;" horiz-adv-x="1024" d="M170 0v1028h125v-469l498 469h157l-520 -491l561 -537h-157l-539 508v-508h-125z" />
<glyph unicode="&#x43b;" d="M59 0v106q14 -6 58 -6q55 0 82 29q100 111 100 494v405h674v-1028h-125v920h-424v-332q0 -602 -268 -602q-66 0 -97 14z" />
<glyph unicode="&#x43c;" horiz-adv-x="1411" d="M164 0v1028h198l340 -930h7l342 930h196v-1028h-123v922h-6l-340 -922h-145l-340 922h-6v-922h-123z" />
<glyph unicode="&#x43d;" d="M164 0v1028h125v-440h561v440h125v-1028h-125v479h-561v-479h-125z" />
<glyph unicode="&#x43e;" d="M90 520q0 244 131 389.5t350 145.5q231 0 354.5 -151.5t123.5 -389.5q0 -248 -129 -392.5t-349 -144.5q-223 0 -352 146.5t-129 396.5zM225 522q0 -205 92.5 -319.5t253.5 -114.5q156 0 249 120t93 320q0 193 -92 306.5t-248 113.5q-160 0 -254 -114.5t-94 -311.5z" />
<glyph unicode="&#x43f;" d="M164 0v1028h811v-1028h-125v920h-561v-920h-125z" />
<glyph unicode="&#x440;" d="M131 1028h123l8 -156q139 178 344 179q203 0 320.5 -141.5t117.5 -387.5q0 -252 -118.5 -398.5t-323.5 -146.5q-213 0 -334 179v-545h-123v1020q0 118 -14 397zM268 520q0 -176 76 -305t240 -129q170 0 247.5 127t77.5 309q0 199 -86 313.5t-233 114.5q-168 0 -245 -126 t-77 -304z" />
<glyph unicode="&#x441;" horiz-adv-x="1024" d="M94 504q0 254 124 402.5t335 148.5q164 0 277.5 -95.5t115.5 -254.5h-141q-23 244 -252 243q-158 0 -242 -112.5t-84 -325.5q0 -201 85 -312.5t237 -111.5q113 0 183.5 64.5t76.5 168.5h137q-16 -168 -121.5 -255t-277.5 -87q-207 0 -330 142.5t-123 384.5z" />
<glyph unicode="&#x442;" horiz-adv-x="997" d="M45 920v108h911v-108h-393v-920h-125v920h-393z" />
<glyph unicode="&#x443;" horiz-adv-x="1024" d="M27 1028h149l344 -860l342 860h133l-565 -1415h-135l156 391z" />
<glyph unicode="&#x444;" horiz-adv-x="1544" d="M92 514q0 250 109.5 393.5t300.5 143.5q51 0 110.5 -27t98.5 -63v518h125v-518q39 37 98 63.5t110 26.5q190 0 300 -143.5t110 -393.5q0 -240 -113.5 -386t-293.5 -146q-55 0 -115 27.5t-96 64.5v-465h-125v465q-37 -37 -96.5 -64.5t-114.5 -27.5q-180 0 -294 146 t-114 386zM225 518q0 -205 78 -316.5t219 -111.5q49 0 103.5 31t85.5 67v662q-68 92 -179 92q-150 0 -228.5 -108.5t-78.5 -315.5zM836 188q31 -37 85 -67.5t103 -30.5q141 0 219 111.5t78 316.5q0 207 -79 315.5t-228 108.5q-111 0 -178 -92v-662z" />
<glyph unicode="&#x445;" horiz-adv-x="1024" d="M37 0l397 526l-375 502h164l289 -403l299 403h143l-364 -498l401 -530h-162l-321 436l-318 -436h-153z" />
<glyph unicode="&#x446;" horiz-adv-x="1155" d="M164 0v1028h125v-919h561v919h125v-919h153v-398h-124v289h-840z" />
<glyph unicode="&#x447;" horiz-adv-x="1024" d="M111 782v246h125v-262q0 -246 253 -246q156 0 265 51v457h125v-1028h-125v471q-117 -53 -285 -53q-174 0 -266 93t-92 271z" />
<glyph unicode="&#x448;" horiz-adv-x="1660" d="M164 0v1028h125v-919h479v919h125v-919h479v919h125v-1028h-1333z" />
<glyph unicode="&#x449;" horiz-adv-x="1671" d="M164 0v1028h125v-919h479v919h125v-919h479v919h125v-919h148v-398h-125v289h-1356z" />
<glyph unicode="&#x44a;" horiz-adv-x="1251" d="M59 920v108h451v-397h326q160 0 251 -80t91 -227q0 -150 -86 -237t-238 -87h-469v920h-326zM510 109h295q111 0 175 56t64 152q0 205 -251 205h-283v-413z" />
<glyph unicode="&#x44b;" horiz-adv-x="1366" d="M158 0v1028h125v-397h284q160 0 251 -80t91 -227.5t-88 -235.5t-241 -88h-422zM283 109h254q111 0 175 56t64 152q0 205 -252 205h-241v-413zM1085 0v1028h125v-1028h-125z" />
<glyph unicode="&#x44c;" horiz-adv-x="1024" d="M158 0v1028h125v-397h325q160 0 251 -80t91 -227.5t-88 -235.5t-241 -88h-463zM283 109h295q111 0 175 56t64 152q0 205 -252 205h-282v-413z" />
<glyph unicode="&#x44d;" horiz-adv-x="1024" d="M80 322h137q6 -104 77 -169t183 -65q147 0 231.5 104.5t90.5 292.5h-430v113h426q-31 350 -301 350q-117 0 -190 -60.5t-83 -174.5h-141q14 172 124.5 257t289.5 85q209 0 323.5 -145.5t114.5 -403.5q0 -242 -123 -384t-330 -142q-186 0 -286 94q-97 90 -113 248z" />
<glyph unicode="&#x44e;" horiz-adv-x="1527" d="M158 0v1028h125v-430h188q20 211 148.5 334t328.5 123q231 0 354 -151.5t123 -389.5q0 -248 -129 -392.5t-348 -144.5q-215 0 -343 136.5t-138 371.5h-184v-485h-125zM602 522q0 -205 92 -319.5t254 -114.5q156 0 249 120t93 320q0 193 -92 306.5t-248 113.5 q-160 0 -254 -114.5t-94 -311.5z" />
<glyph unicode="&#x44f;" horiz-adv-x="1064" d="M96 0l10 41q8 49 23 182q6 74 11 102.5t23.5 70.5t53.5 69q39 33 125 47v4q-96 23 -158.5 82t-62.5 158q0 127 91 199.5t241 72.5h450v-1028h-125v457h-307q-68 0 -102.5 -11.5t-61.5 -44.5q-20 -25 -32.5 -65.5t-16.5 -72.5t-7 -76t-3 -52q-8 -84 -23 -135h-129z M254 743q0 -182 240 -182h284v359h-297q-106 0 -166.5 -47.5t-60.5 -129.5z" />
<glyph unicode="&#x450;" d="M272 1473h164l184 -295h-90zM102 502q0 242 120 397.5t353 155.5q215 0 335 -145.5t120 -401.5v-12h-794q2 -193 94 -301.5t250 -108.5q117 0 198.5 63.5t110.5 178.5h129q-31 -160 -150.5 -255.5t-292.5 -95.5q-225 0 -349 148t-124 377zM240 598h657q-10 164 -99 258 t-233 94q-133 0 -220 -93t-105 -259z" />
<glyph unicode="&#x451;" d="M102 502q0 242 120 397.5t353 155.5q215 0 335 -145.5t120 -401.5v-12h-794q2 -193 94 -301.5t250 -108.5q117 0 198.5 63.5t110.5 178.5h129q-31 -160 -150.5 -255.5t-292.5 -95.5q-225 0 -349 148t-124 377zM240 598h657q-10 164 -99 258t-233 94q-133 0 -220 -93 t-105 -259zM315 1268v180h152v-180h-152zM672 1268v180h151v-180h-151z" />
<glyph unicode="&#x452;" horiz-adv-x="1116" d="M25 922v106h139v451h125v-451h483v-106h-483v-398h4q45 70 84 103q96 84 239 84q358 0 359 -416v-232q0 -47 -16.5 -112.5t-56.5 -150.5t-130 -145.5t-215 -62.5v105q135 14 214 123.5t79 302.5v192q0 131 -70.5 207t-195.5 76q-135 0 -215 -96t-80 -258v-244h-125v922 h-139z" />
<glyph unicode="&#x453;" horiz-adv-x="909" d="M164 0v1028h670v-108h-545v-920h-125zM444 1155l187 293h164l-260 -293h-91z" />
<glyph unicode="&#x454;" horiz-adv-x="1024" d="M94 506q0 258 115 403.5t323 145.5q178 0 289 -85t125 -257h-141q-10 115 -83 175t-190 60q-270 0 -301 -350h426v-113h-430q6 -188 90 -292.5t232 -104.5q113 0 183.5 64.5t76.5 169.5h137q-16 -158 -112 -248q-100 -94 -287 -94q-207 0 -330 142t-123 384z" />
<glyph unicode="&#x455;" horiz-adv-x="1024" d="M90 281h137q16 -203 273 -203q131 0 205.5 54t74.5 149q0 47 -14 79.5t-49 53t-61.5 30t-77.5 23.5l-211 55q-127 35 -183.5 91.5t-56.5 168.5q0 125 106.5 200t276.5 75q350 0 375 -283h-137q-16 184 -252 184q-113 0 -176.5 -45t-63.5 -127q0 -33 12.5 -58.5 t26.5 -39.5t46 -28.5t49.5 -18.5t55.5 -14l211 -56q125 -33 190.5 -91t65.5 -179q0 -145 -113.5 -233t-301.5 -88q-186 0 -295 80t-113 221z" />
<glyph unicode="&#x456;" horiz-adv-x="454" d="M156 1323v156h145v-156h-145zM164 0v1028h125v-1028h-125z" />
<glyph unicode="&#x457;" horiz-adv-x="454" d="M-27 1268v180h152v-180h-152zM164 0v1028h125v-1028h-125zM330 1268v180h151v-180h-151z" />
<glyph unicode="&#x458;" horiz-adv-x="454" d="M8 -289q16 -2 35 -2q68 0 96.5 35t28.5 117v1167h125v-1206q0 -111 -45 -162q-53 -61 -187 -61q-4 0 -53 4v108zM154 1323v156h145v-156h-145z" />
<glyph unicode="&#x459;" horiz-adv-x="1671" d="M59 0v106q14 -6 45 -6q55 0 82 29q100 111 101 494v405h667v-399h301q160 0 251 -81t91 -231q0 -147 -85 -232t-238 -85h-445v920h-417v-332q0 -602 -269 -602q-53 0 -84 14zM954 109h271q111 0 175 56t64 152q0 205 -252 205h-258v-413z" />
<glyph unicode="&#x45a;" horiz-adv-x="1671" d="M164 0v1028h125v-412h540v412h125v-412h301q162 0 252 -74.5t90 -222t-86 -233.5t-237 -86h-445v510h-540v-510h-125zM954 109h271q111 0 175 53t64 149q0 199 -252 199h-258v-401z" />
<glyph unicode="&#x45b;" d="M25 920v108h139v451h125v-451h483v-108h-483v-396h4q45 70 84 103q96 84 239 84q358 0 359 -416v-295h-125v315q0 131 -70.5 207t-195.5 76q-135 0 -215 -96t-80 -258v-244h-125v920h-139z" />
<glyph unicode="&#x45c;" horiz-adv-x="1024" d="M170 0v1028h125v-469l498 469h157l-520 -491l561 -537h-157l-539 508v-508h-125zM444 1155l187 293h164l-260 -293h-91z" />
<glyph unicode="&#x45d;" d="M266 1473h164l184 -295h-90zM164 0v1028h125v-862h6l536 862h144v-1028h-125v848h-6l-537 -848h-143z" />
<glyph unicode="&#x45e;" horiz-adv-x="1024" d="M27 1028h149l344 -860l342 860h133l-565 -1415h-135l156 391zM262 1462h68q39 -145 198.5 -145t204.5 145h70q-10 -121 -82 -185.5t-195 -64.5q-241 0 -264 250z" />
<glyph unicode="&#x45f;" d="M164 0v1028h125v-919h561v919h125v-1028h-338v-289h-125v289h-348z" />
<glyph unicode="&#x490;" d="M195 0v1479h702v260h133v-377h-702v-1362h-133z" />
<glyph unicode="&#x491;" horiz-adv-x="909" d="M164 0v1028h547v258h123v-366h-545v-920h-125z" />
<glyph unicode="&#x4ae;" horiz-adv-x="1251" d="M16 1479h170l453 -715l453 715h143l-539 -844v-635h-135v641z" />
<glyph unicode="&#x4c0;" horiz-adv-x="569" d="M217 0v1479h133v-1479h-133z" />
<glyph unicode="&#x2000;" horiz-adv-x="962" />
<glyph unicode="&#x2001;" horiz-adv-x="1925" />
<glyph unicode="&#x2002;" horiz-adv-x="962" />
<glyph unicode="&#x2003;" horiz-adv-x="1925" />
<glyph unicode="&#x2004;" horiz-adv-x="641" />
<glyph unicode="&#x2005;" horiz-adv-x="481" />
<glyph unicode="&#x2006;" horiz-adv-x="319" />
<glyph unicode="&#x2007;" horiz-adv-x="319" />
<glyph unicode="&#x2008;" horiz-adv-x="239" />
<glyph unicode="&#x2009;" horiz-adv-x="385" />
<glyph unicode="&#x200a;" horiz-adv-x="106" />
<glyph unicode="&#x2010;" horiz-adv-x="569" d="M27 494v108h516v-108h-516z" />
<glyph unicode="&#x2011;" horiz-adv-x="569" d="M27 494v108h516v-108h-516z" />
<glyph unicode="&#x2012;" horiz-adv-x="569" d="M27 494v108h516v-108h-516z" />
<glyph unicode="&#x2013;" horiz-adv-x="1024" d="M0 485v123h1024v-123h-1024z" />
<glyph unicode="&#x2014;" horiz-adv-x="2048" d="M0 485v123h2048v-123h-2048z" />
<glyph unicode="&#x2018;" horiz-adv-x="569" d="M147 1057l150 422h111l-93 -422h-168z" />
<glyph unicode="&#x2019;" horiz-adv-x="569" d="M150 1057l94 422h166l-150 -422h-110z" />
<glyph unicode="&#x201a;" horiz-adv-x="569" d="M121 -246l104 422h170l-164 -422h-110z" />
<glyph unicode="&#x201c;" d="M240 1057l172 422h110l-112 -422h-170zM618 1057l175 422h108l-113 -422h-170z" />
<glyph unicode="&#x201d;" d="M225 1057l111 422h172l-174 -422h-109zM604 1057l113 422h170l-174 -422h-109z" />
<glyph unicode="&#x201e;" d="M242 -246l104 422h170l-164 -422h-110zM621 -246l104 422h172l-164 -422h-112z" />
<glyph unicode="&#x2026;" horiz-adv-x="2048" d="M256 0v211h156v-211h-156zM938 0v211h156v-211h-156zM1620 0v211h156v-211h-156z" />
<glyph unicode="&#x202f;" horiz-adv-x="385" />
<glyph unicode="&#x2039;" horiz-adv-x="569" d="M119 537l209 393h104l-186 -404l188 -393h-106z" />
<glyph unicode="&#x203a;" horiz-adv-x="569" d="M119 930h106l209 -404l-209 -393h-104l184 404z" />
<glyph unicode="&#x205f;" horiz-adv-x="481" />
<glyph unicode="&#x2122;" horiz-adv-x="1925" d="M59 1397v82h656v-82h-271v-781h-112v781h-273zM868 616v863h203l246 -637h4l242 637h202v-863h-112v773h-4l-297 -773h-70l-297 773h-4v-773h-113z" />
<glyph unicode="&#xe000;" horiz-adv-x="1030" d="M0 1030h1030v-1030h-1030v1030z" />
</font>
</defs>
</svg>
